<mxfile host="app.diagrams.net" modified="2024-06-10T10:48:00.039Z" agent="Mozilla/5.0 (Windows NT 10.0; Win64; x64) AppleWebKit/537.36 (KHTML, like Gecko) Chrome/125.0.0.0 Safari/537.36" etag="kMayltoh1QqMW5ryQOwp" version="24.5.2" type="github">
  <diagram name="Page-1" id="Q7nIa-rwhlYLwEDB3UGg">
    <mxGraphModel dx="1434" dy="772" grid="1" gridSize="10" guides="1" tooltips="1" connect="1" arrows="1" fold="1" page="1" pageScale="1" pageWidth="827" pageHeight="1169" math="0" shadow="0">
      <root>
        <mxCell id="0" />
        <mxCell id="1" parent="0" />
        <mxCell id="1fcCJXUXk4PBJdgC8T8_-18" style="edgeStyle=orthogonalEdgeStyle;rounded=0;orthogonalLoop=1;jettySize=auto;html=1;exitX=0.5;exitY=1;exitDx=0;exitDy=0;" edge="1" parent="1" source="1fcCJXUXk4PBJdgC8T8_-1" target="1fcCJXUXk4PBJdgC8T8_-2">
          <mxGeometry relative="1" as="geometry" />
        </mxCell>
        <mxCell id="1fcCJXUXk4PBJdgC8T8_-1" value="Start" style="whiteSpace=wrap;html=1;" vertex="1" parent="1">
          <mxGeometry x="354" y="10" width="120" height="60" as="geometry" />
        </mxCell>
        <mxCell id="1fcCJXUXk4PBJdgC8T8_-19" style="edgeStyle=orthogonalEdgeStyle;rounded=0;orthogonalLoop=1;jettySize=auto;html=1;exitX=0.5;exitY=1;exitDx=0;exitDy=0;entryX=0.5;entryY=0;entryDx=0;entryDy=0;" edge="1" parent="1" source="1fcCJXUXk4PBJdgC8T8_-2" target="1fcCJXUXk4PBJdgC8T8_-3">
          <mxGeometry relative="1" as="geometry" />
        </mxCell>
        <mxCell id="1fcCJXUXk4PBJdgC8T8_-2" value="Page de création de livraison&lt;div&gt;(/create-delivery)&amp;nbsp;&lt;br&gt;&lt;/div&gt;" style="whiteSpace=wrap;html=1;" vertex="1" parent="1">
          <mxGeometry x="354" y="80" width="120" height="60" as="geometry" />
        </mxCell>
        <mxCell id="1fcCJXUXk4PBJdgC8T8_-20" style="edgeStyle=orthogonalEdgeStyle;rounded=0;orthogonalLoop=1;jettySize=auto;html=1;exitX=0.5;exitY=1;exitDx=0;exitDy=0;" edge="1" parent="1" source="1fcCJXUXk4PBJdgC8T8_-3" target="1fcCJXUXk4PBJdgC8T8_-5">
          <mxGeometry relative="1" as="geometry" />
        </mxCell>
        <mxCell id="1fcCJXUXk4PBJdgC8T8_-3" value="Remplissage des champs (volume, poids)&amp;nbsp; &amp;nbsp;&amp;nbsp;" style="whiteSpace=wrap;html=1;" vertex="1" parent="1">
          <mxGeometry x="354" y="150" width="120" height="60" as="geometry" />
        </mxCell>
        <mxCell id="1fcCJXUXk4PBJdgC8T8_-21" style="edgeStyle=orthogonalEdgeStyle;rounded=0;orthogonalLoop=1;jettySize=auto;html=1;exitX=0.5;exitY=1;exitDx=0;exitDy=0;entryX=0.5;entryY=0;entryDx=0;entryDy=0;" edge="1" parent="1" source="1fcCJXUXk4PBJdgC8T8_-5" target="1fcCJXUXk4PBJdgC8T8_-6">
          <mxGeometry relative="1" as="geometry" />
        </mxCell>
        <mxCell id="1fcCJXUXk4PBJdgC8T8_-5" value="&lt;br&gt;Soumission du formulaire&lt;br&gt;&lt;div&gt;&lt;br/&gt;&lt;/div&gt;" style="whiteSpace=wrap;html=1;" vertex="1" parent="1">
          <mxGeometry x="354" y="220" width="120" height="60" as="geometry" />
        </mxCell>
        <mxCell id="1fcCJXUXk4PBJdgC8T8_-22" style="edgeStyle=orthogonalEdgeStyle;rounded=0;orthogonalLoop=1;jettySize=auto;html=1;exitX=0.5;exitY=1;exitDx=0;exitDy=0;" edge="1" parent="1" source="1fcCJXUXk4PBJdgC8T8_-6" target="1fcCJXUXk4PBJdgC8T8_-7">
          <mxGeometry relative="1" as="geometry" />
        </mxCell>
        <mxCell id="1fcCJXUXk4PBJdgC8T8_-6" value="&lt;br&gt;Validation des champs&lt;br&gt;&lt;div&gt;&lt;br/&gt;&lt;/div&gt;" style="whiteSpace=wrap;html=1;" vertex="1" parent="1">
          <mxGeometry x="354" y="290" width="120" height="60" as="geometry" />
        </mxCell>
        <mxCell id="1fcCJXUXk4PBJdgC8T8_-12" style="edgeStyle=orthogonalEdgeStyle;rounded=0;orthogonalLoop=1;jettySize=auto;html=1;entryX=1;entryY=0.5;entryDx=0;entryDy=0;" edge="1" parent="1" source="1fcCJXUXk4PBJdgC8T8_-7" target="1fcCJXUXk4PBJdgC8T8_-8">
          <mxGeometry relative="1" as="geometry" />
        </mxCell>
        <mxCell id="1fcCJXUXk4PBJdgC8T8_-14" style="edgeStyle=orthogonalEdgeStyle;rounded=0;orthogonalLoop=1;jettySize=auto;html=1;entryX=0.5;entryY=0;entryDx=0;entryDy=0;" edge="1" parent="1" source="1fcCJXUXk4PBJdgC8T8_-7" target="1fcCJXUXk4PBJdgC8T8_-9">
          <mxGeometry relative="1" as="geometry" />
        </mxCell>
        <mxCell id="1fcCJXUXk4PBJdgC8T8_-7" value="Champs valides ?&amp;nbsp;&amp;nbsp;" style="whiteSpace=wrap;html=1;" vertex="1" parent="1">
          <mxGeometry x="354" y="360" width="120" height="60" as="geometry" />
        </mxCell>
        <mxCell id="1fcCJXUXk4PBJdgC8T8_-16" style="edgeStyle=orthogonalEdgeStyle;rounded=0;orthogonalLoop=1;jettySize=auto;html=1;entryX=0;entryY=0.5;entryDx=0;entryDy=0;" edge="1" parent="1" source="1fcCJXUXk4PBJdgC8T8_-8" target="1fcCJXUXk4PBJdgC8T8_-1">
          <mxGeometry relative="1" as="geometry">
            <mxPoint x="280" y="-10" as="targetPoint" />
            <Array as="points">
              <mxPoint x="250" y="40" />
            </Array>
          </mxGeometry>
        </mxCell>
        <mxCell id="1fcCJXUXk4PBJdgC8T8_-8" value="Message d&#39;erreur&amp;nbsp;" style="whiteSpace=wrap;html=1;" vertex="1" parent="1">
          <mxGeometry x="190" y="360" width="120" height="60" as="geometry" />
        </mxCell>
        <mxCell id="1fcCJXUXk4PBJdgC8T8_-23" style="edgeStyle=orthogonalEdgeStyle;rounded=0;orthogonalLoop=1;jettySize=auto;html=1;exitX=0.5;exitY=1;exitDx=0;exitDy=0;entryX=0.5;entryY=0;entryDx=0;entryDy=0;" edge="1" parent="1" source="1fcCJXUXk4PBJdgC8T8_-9" target="1fcCJXUXk4PBJdgC8T8_-17">
          <mxGeometry relative="1" as="geometry" />
        </mxCell>
        <mxCell id="1fcCJXUXk4PBJdgC8T8_-9" value="Création de la livraison (DeliveryDao.&lt;div&gt;createDelivery())&lt;/div&gt;" style="whiteSpace=wrap;html=1;" vertex="1" parent="1">
          <mxGeometry x="354" y="460" width="120" height="60" as="geometry" />
        </mxCell>
        <mxCell id="1fcCJXUXk4PBJdgC8T8_-10" value="Non" style="whiteSpace=wrap;html=1;" vertex="1" parent="1">
          <mxGeometry x="324" y="370" width="30" height="20" as="geometry" />
        </mxCell>
        <mxCell id="1fcCJXUXk4PBJdgC8T8_-11" value="&lt;div&gt;Oui&lt;/div&gt;" style="whiteSpace=wrap;html=1;" vertex="1" parent="1">
          <mxGeometry x="414" y="430" width="30" height="20" as="geometry" />
        </mxCell>
        <mxCell id="1fcCJXUXk4PBJdgC8T8_-25" style="edgeStyle=orthogonalEdgeStyle;rounded=0;orthogonalLoop=1;jettySize=auto;html=1;exitX=0.5;exitY=1;exitDx=0;exitDy=0;" edge="1" parent="1" source="1fcCJXUXk4PBJdgC8T8_-17" target="1fcCJXUXk4PBJdgC8T8_-24">
          <mxGeometry relative="1" as="geometry" />
        </mxCell>
        <mxCell id="1fcCJXUXk4PBJdgC8T8_-17" value="Page des livraisons admin (/admin-deliveries)" style="whiteSpace=wrap;html=1;" vertex="1" parent="1">
          <mxGeometry x="354" y="530" width="120" height="60" as="geometry" />
        </mxCell>
        <mxCell id="1fcCJXUXk4PBJdgC8T8_-28" style="edgeStyle=orthogonalEdgeStyle;rounded=0;orthogonalLoop=1;jettySize=auto;html=1;" edge="1" parent="1" source="1fcCJXUXk4PBJdgC8T8_-24" target="1fcCJXUXk4PBJdgC8T8_-27">
          <mxGeometry relative="1" as="geometry" />
        </mxCell>
        <mxCell id="1fcCJXUXk4PBJdgC8T8_-29" style="edgeStyle=orthogonalEdgeStyle;rounded=0;orthogonalLoop=1;jettySize=auto;html=1;" edge="1" parent="1" source="1fcCJXUXk4PBJdgC8T8_-24" target="1fcCJXUXk4PBJdgC8T8_-26">
          <mxGeometry relative="1" as="geometry" />
        </mxCell>
        <mxCell id="1fcCJXUXk4PBJdgC8T8_-24" value="Voir livraisons en attente&lt;br&gt;&lt;div&gt;&lt;br/&gt;&lt;/div&gt;" style="whiteSpace=wrap;html=1;" vertex="1" parent="1">
          <mxGeometry x="354" y="600" width="120" height="60" as="geometry" />
        </mxCell>
        <mxCell id="1fcCJXUXk4PBJdgC8T8_-34" value="" style="edgeStyle=orthogonalEdgeStyle;rounded=0;orthogonalLoop=1;jettySize=auto;html=1;" edge="1" parent="1" source="1fcCJXUXk4PBJdgC8T8_-26" target="1fcCJXUXk4PBJdgC8T8_-33">
          <mxGeometry relative="1" as="geometry" />
        </mxCell>
        <mxCell id="1fcCJXUXk4PBJdgC8T8_-26" value="Accepter la livraison" style="whiteSpace=wrap;html=1;" vertex="1" parent="1">
          <mxGeometry x="480" y="680" width="120" height="60" as="geometry" />
        </mxCell>
        <mxCell id="1fcCJXUXk4PBJdgC8T8_-31" value="" style="edgeStyle=orthogonalEdgeStyle;rounded=0;orthogonalLoop=1;jettySize=auto;html=1;" edge="1" parent="1" source="1fcCJXUXk4PBJdgC8T8_-27" target="1fcCJXUXk4PBJdgC8T8_-30">
          <mxGeometry relative="1" as="geometry" />
        </mxCell>
        <mxCell id="1fcCJXUXk4PBJdgC8T8_-36" style="edgeStyle=orthogonalEdgeStyle;rounded=0;orthogonalLoop=1;jettySize=auto;html=1;" edge="1" parent="1" source="1fcCJXUXk4PBJdgC8T8_-27" target="1fcCJXUXk4PBJdgC8T8_-35">
          <mxGeometry relative="1" as="geometry" />
        </mxCell>
        <mxCell id="1fcCJXUXk4PBJdgC8T8_-27" value="Refuser la livraison" style="whiteSpace=wrap;html=1;" vertex="1" parent="1">
          <mxGeometry x="230" y="680" width="120" height="60" as="geometry" />
        </mxCell>
        <mxCell id="1fcCJXUXk4PBJdgC8T8_-30" value="Terminer la livraison" style="whiteSpace=wrap;html=1;" vertex="1" parent="1">
          <mxGeometry x="50" y="680" width="120" height="60" as="geometry" />
        </mxCell>
        <mxCell id="1fcCJXUXk4PBJdgC8T8_-33" value="Misa à jour du statut&lt;div&gt;(DeliveryDao.&lt;/div&gt;&lt;div&gt;acceptDeliveryById())&lt;br&gt;&lt;/div&gt;" style="whiteSpace=wrap;html=1;" vertex="1" parent="1">
          <mxGeometry x="480" y="760" width="120" height="60" as="geometry" />
        </mxCell>
        <mxCell id="1fcCJXUXk4PBJdgC8T8_-35" value="Misa à jour du statut&lt;div&gt;(DeliveryDao.&lt;/div&gt;&lt;div&gt;acceptDeliveryById())&lt;br&gt;&lt;/div&gt;" style="whiteSpace=wrap;html=1;" vertex="1" parent="1">
          <mxGeometry x="230" y="760" width="120" height="60" as="geometry" />
        </mxCell>
      </root>
    </mxGraphModel>
  </diagram>
</mxfile>
